<svg xmlns="http://www.w3.org/2000/svg" viewBox="0 0 1920 1080" xml:space="preserve"><g id="en-simulator"><g><path d="M1306 852.92c-11.33 0-18.09-5.97-18.09-15.98V815.8h14.68c-1.15-1.48-2.4-2.98-3.66-4.51-5.42-6.52-11.02-13.25-11.02-21v-11.95c0-10 6.76-15.98 18.09-15.98 11.4 0 18.2 5.97 18.2 15.98v19.49h-15.16c1.13 1.47 2.32 2.97 3.44 4.37 5.76 7.23 11.73 14.71 11.73 19.97v14.76c0 10.01-6.81 15.99-18.21 15.99zm-1.83-17.04c0 3.24.57 3.24 1.95 3.24 1.26 0 1.83 0 1.83-3.24v-8.79c0-2.95-1.55-6.01-3.79-9.18v17.97zm1.95-59.72c-1.38 0-1.95 0-1.95 3.24v10.31c0 1.24 1.66 3.81 3.79 6.68V779.4c0-3.24-.58-3.24-1.84-3.24z"/><path d="M1306 764.29c7.73 0 16.29 3.16 16.29 14.06v17.58h-12.42V779.4c0-4.22-1.29-5.16-3.75-5.16-2.58 0-3.87.94-3.87 5.16v10.31c0 5.98 20.04 24.02 20.04 32.46v14.77c0 10.9-8.55 14.06-16.29 14.06-7.62 0-16.17-3.16-16.17-14.06v-19.22h12.42v18.16c0 4.22 1.29 5.16 3.87 5.16 2.46 0 3.75-.94 3.75-5.16v-8.79c0-11.72-20.04-23.2-20.04-36.8v-11.95c0-10.89 8.56-14.05 16.17-14.05m0-3.84c-12.34 0-20 6.86-20 17.89v11.95c0 8.43 6.09 15.76 11.46 22.22.38.46.76.92 1.14 1.37H1286V836.93c0 11.04 7.66 17.89 20 17.89 12.41 0 20.12-6.86 20.12-17.89v-14.77c0-5.92-5.9-13.32-12.14-21.16-.32-.4-.65-.82-1-1.26h13.14V778.33c0-11.02-7.71-17.88-20.12-17.88z" fill="#adb7bf"/></g><g><path d="M1328.34 764.01h16.25v87.26h-16.25z"/><path d="M1342.68 765.93v83.43h-12.42v-83.43h12.42m3.83-3.84h-20.08v91.09h20.08v-91.09z" fill="#adb7bf"/></g><g><path d="M1386.82 851.27v-31.26l-3.77 31.26h-14.78l-3.75-33.87v33.87h-14.73v-87.26h22.02l4.15 35.94 3.54-35.94h22.05v87.26z"/><path d="M1399.63 765.93v83.43h-10.9v-38.44c0-9.84.12-19.1.47-29.65h-.47c-.7 6.21-2.58 27.65-3.05 32.11l-4.34 35.98h-11.37l-4.45-40.19c-.94-8.55-2.11-20.74-2.93-27.89h-.47c.12 5.04.47 11.25.47 16.29v51.79h-10.9v-83.43h18.4l3.98 34.45c.7 5.16 1.88 15.47 1.99 26.01h.59c.35-8.67.47-19.22 1.17-25.9l3.4-34.57h18.41m3.83-3.83H1377.76l-.34 3.46-1.61 16.39-1.9-16.46-.39-3.39h-25.64v91.09H1366.44v-1.1l.12 1.1h18.2l.15-1.28v1.28H1403.47v-91.09h-.01z" fill="#adb7bf"/></g><g><path d="M1424.47 852.92c-11.33 0-18.09-5.97-18.09-15.98v-72.93h16.25v71.87c0 3.24.57 3.24 1.95 3.24 1.26 0 1.83 0 1.83-3.24v-71.87h16.25v72.93c.01 10-6.79 15.98-18.19 15.98z"/><path d="M1440.76 765.93v71.01c0 10.9-8.55 14.06-16.29 14.06-7.62 0-16.17-3.16-16.17-14.06v-71.01h12.42v69.96c0 4.22 1.29 5.16 3.87 5.16 2.46 0 3.75-.94 3.75-5.16v-69.96h12.42m3.83-3.84h-40.12v74.84c0 11.04 7.66 17.89 20 17.89 12.41 0 20.12-6.86 20.12-17.89v-74.84z" fill="#adb7bf"/></g><g><path d="M1446.93 851.27v-87.26h16.25v72.54H1479v14.72z"/><path d="M1461.27 765.93v72.54h15.82v10.9h-28.24v-83.43h12.42m3.83-3.85h-20.08v91.09h35.9V834.62h-15.82v-72.53z" fill="#adb7bf"/></g><g><path d="m1503.01 851.27-2.34-22.62h-5.36l-2.7 22.62h-15.09l9.93-87.26h22.05l9.93 87.26h-16.42zm-3.85-37.34-1.05-14.13-1.24 14.13h2.29z"/><path d="m1507.79 765.93 9.49 83.43h-12.54l-2.34-22.62h-8.79l-2.7 22.62h-11.25l9.49-83.43h18.64m-13.01 49.92h6.45l-2.58-34.69h-.82l-3.05 34.69m16.43-53.76h-25.47l-.39 3.4-9.49 83.43-.49 4.26H1494.31l.4-3.38 2.29-19.24h1.93l1.99 19.18.36 3.44H1521.56l-.49-4.26-9.49-83.43-.37-3.4z" fill="#adb7bf"/></g><g><path d="M1523.1 851.27v-72.53h-10.9v-14.73h37.93v14.73h-10.78v72.53z"/><path d="M1548.21 765.93v10.9h-10.78v72.54h-12.42v-72.54h-10.9v-10.9h34.1m3.83-3.84h-41.76V780.65h10.9V853.19h20.08V780.65H1552.04V762.09z" fill="#adb7bf"/></g><g><path d="M1570.24 852.92c-11.33 0-18.09-5.97-18.09-15.98v-58.59c0-10 6.76-15.98 18.09-15.98 11.4 0 18.2 5.97 18.2 15.98v58.59c.01 10-6.8 15.98-18.2 15.98zm.12-76.76c-1.38 0-1.95 0-1.95 3.24v56.48c0 3.24.57 3.24 1.95 3.24 1.26 0 1.83 0 1.83-3.24V779.4c0-3.24-.57-3.24-1.83-3.24z"/><path d="M1570.24 764.29c7.73 0 16.29 3.16 16.29 14.06v58.59c0 10.9-8.55 14.06-16.29 14.06-7.62 0-16.17-3.16-16.17-14.06v-58.59c0-10.9 8.56-14.06 16.17-14.06m.12 76.75c2.46 0 3.75-.94 3.75-5.16V779.4c0-4.22-1.29-5.16-3.75-5.16-2.58 0-3.87.94-3.87 5.16v56.48c0 4.22 1.29 5.16 3.87 5.16m-.12-80.59c-12.34 0-20 6.86-20 17.89v58.59c0 11.04 7.66 17.89 20 17.89 12.41 0 20.12-6.86 20.12-17.89v-58.59c0-11.03-7.71-17.89-20.12-17.89z" fill="#adb7bf"/></g><g><path d="m1614.28 851.27-.33-1.5c-1.79-8.16-1.69-18.18-1.6-27.03.02-1.82.04-3.58.04-5.25 0-3.51-.81-4.68-3.79-4.87v38.66h-16.25v-87.26h18.32c12.09 0 17.97 5.3 17.97 16.21v11.84c0 4.9-.98 9.99-7.04 12.71 3.4 1.62 6.23 4.56 6.57 10.14.24 3.87.32 7.88.4 11.75.14 7.37.29 14.99 1.57 22.37l.39 2.24h-16.25zm-5.25-52.69c2.89 0 3.36-1.02 3.36-3.48v-15.12c0-1.36-.19-2.19-2.77-2.19h-1.01v20.78h.42z"/><path d="M1610.67 765.93c9.96 0 16.05 3.52 16.05 14.3v11.84c0 6.21-1.76 11.37-12.3 12.54v.24c5.51.7 11.37 2.58 11.84 10.19.7 11.13 0 22.85 1.99 34.33h-12.42c-2.11-9.61-1.52-22.15-1.52-31.87 0-4.78-1.68-6.81-6.75-6.81-.28 0-.57.01-.87.02v38.67h-12.42v-83.43h16.4m-3.98 34.54h2.34c4.34 0 5.27-2.34 5.27-5.39v-15.12c0-3.16-1.87-4.1-4.69-4.1h-2.93v24.61m3.99-38.4H1590.43v91.09h20.08V836.12c.18 4.88.61 9.7 1.57 14.05l.66 3.01h20.05l-.78-4.49c-1.26-7.24-1.4-14.78-1.54-22.08-.08-3.9-.15-7.92-.4-11.84-.26-4.29-1.89-7.62-4.86-9.96 4.61-3.45 5.33-8.61 5.33-12.77V780.2c.01-12.01-6.68-18.11-19.87-18.11z" fill="#adb7bf"/></g></g><g id="zh-simulator"><g><path d="m1198.44 746.47 8.08-17.06h-18.7l-20.04 36.52-24.1-13.23 12.05-21.22h-17.92l-.58-27.95h34.38l1.52-2.88h-7.84l-11.82-10.28-1.61-12.48h-1.09l-5.16 22.32-13.33-3.05 1.83 66.19h-27.54l-1.11-42.62-5.03 32.34-27.45-4.38 12.29-77.22 14.94-10.04 3.84.93-.37-13.83-26.98 2.85-2.92-27.45 29.08-3.21-.84-36.67h27.32l.82 33.76 7.83-.84-.83-25.98h24.81l-.79-9.26 27.39-3.06 1.08 10.05h25.73l1.79-9.3 27.32 5.43-.42 1.8h11.21l1.16 27.95h-18.28l-1.52 7.64h4.03l12.47 12.73-6.4 55.41-11.84 10.3h-30.29l-.63 1.02h47.85l.58 27.74h-25.39l26.46 12.09-11.72 24.91-43.32-19.97zm22.5-73.36 2.77-23.37h-6.85l.99 23.37h3.09zm-79.37-1.96-.66-21.01h7.71l-1.54-13.34 12.03-14.59h6.19l-.44-3.71h-23.44l2.72 25.6-13.13 1.48.64 23.28 9.92 2.29zm67.04-48.94 1.21-5.78h-17.28l.54 5.78h15.53z"/><path d="m1185.01 583.11 1.03 9.62h32.69l1.66-8.59 19.24 3.83-.62 2.69h12.42l.83 19.86h-17.38l-2.9 14.6-19.04-3.87 1.86-8.87h-26.69l.83 8.87-19.45 2.04-1.04-8.84h-26.49l-.62-19.45h25.04l-.83-9.73 19.46-2.16m-59.59 4.96.83 34.2 11.38-1.22 2.07 19.47-12.83 1.45.83 30.11 19.24 4.47-4.35 18.81-14.48-3.31 1.86 67.25h-19.45l-1.86-71.59-2.07-.41-9.52 61.14-19.45-3.1 11.38-71.49 12-8.07 7.24 1.76-.62-23.49-27.31 2.88-2.07-19.44 28.76-3.18-.83-36.24h19.25m113.59 38.18 9.93 10.14-6 51.94-9.52 8.28h-31.04l-5.59 9.1h51.11l.41 19.66h-62.9l-19.24 35.07-16.97-9.31 13.45-23.69h-20.9l-.41-19.86h32.69l5.79-10.97h-13.04l-9.52-8.28-1.86-14.48h-9.72l-.62-19.66h8.07l-1.86-16.14 9.72-11.79h78.02m-10.75 19.44h-56.28l.83 7.04h40.14l.83 19.66h-38.69l.62 4.76h48.83l3.72-31.46m-16.14 81.32 36 16.45-8.28 17.59-36-16.55 8.28-17.49m-19.94-152.85-8.07.9-19.45 2.17-7.82.87.67 7.84.08.96H1133.47l-.17-6.93h-35.4l.19 8.27.66 28.84-21.4 2.37-8 .88.85 8 2.07 19.44.85 8.03 8.03-.85 18.62-1.97.11 4.18-.44-.11-2.96 1.99-12 8.07-2.92 1.96-.55 3.47-11.38 71.49-1.27 7.98 7.98 1.27 19.45 3.1 6.59 1.05.05 2.04.2 7.87h35.63l-.23-8.31-.65-23.56h11.39l-6.6 11.62-4.05 7.13 7.19 3.94 16.97 9.31 7.09 3.89 3.89-7.09 16.94-30.88h9.93l-3.6 7.6-3.5 7.39 7.43 3.41 36 16.55 7.28 3.35 3.41-7.25 8.28-17.59 3.48-7.4-7.43-3.4-5.85-2.67h10.95l-.17-8.25-.41-19.66-.17-7.91h-11.25l3.68-3.2 2.37-2.06.36-3.11 6-51.94.44-3.83-2.7-2.75-9.93-10.14-1.95-1.99h17.85l-.35-8.42-.83-19.86-.32-7.75h-10.01l.21-.91-8.17-1.63-19.24-3.83-7.97-1.59-1.54 7.98-.39 2.04h-18.76l-.26-2.4-.89-8.01zm-46.27 48.37h7.68l-6.81 8.26-.87-8.26zm-10.76 26.63 1.68-.19.17 5.45.37 11.59-1.76-.41-.46-16.44zm14.78 50.32.53-2.31.78-3.39.73.64 5.82 5.06h-7.86z" fill="#adb7bf"/></g><g><path d="m1351.47 746.07 20.25-25.17-23.26 9.86-17.28-11.52.17-28.63-12.13 4.4 2.54 32.96-5.06 10.88-34.67 23.12-15.53-22.57 27.08-18.35-1.27-16.42-22.45 7.88-9.06-26.03 29.22-10.45-1.94-25.93-21.64 2.06-2.64-27.29 22.22-2.08-2.9-37.28 27.52-2.34 2.69 36.78 16.92-1.65 1.46 17.1.16-26.86h27.74l-.6 87.7 16.84-7.22 7.58 17.36 20.84-25.9v-90.97h27.33v96.8l-2.52 7.31-9.46 11.73 30.82 34.17-20.47 18.42-28.09-30.73-28.95 35.88-21.46-17.02zm-19.98-78.46.13-21.7-16.07 1.57 1.39 18.88 12.41-4.51 2.14 5.76zm24.41-71.89 24.59-12.59 18.92 38.36-24.63 12.02-18.88-37.79z"/><path d="m1306.88 587.56 2.69 36.83 16.97-1.66 1.66 19.45-16.97 1.65 2.07 28.14 13.66-4.97 6.83 18.42-18.83 6.83 2.69 34.97-4.14 8.9-30.42 20.28-10.97-15.93 25.66-17.38-1.86-24-23.59 8.28-6.41-18.42 28.35-10.14-2.48-33.11-21.73 2.07-1.86-19.24 22.14-2.07-2.9-37.25 19.44-1.65m71.8 1.03 15.31 31.04-17.38 8.48-15.31-30.62 17.38-8.9m48.84 4.97v92.08l-2.07 6-11.18 13.86 30.42 33.73-14.48 13.04-28.56-31.24-29.38 36.42-15.11-12 51.11-63.52v-88.36h19.25m-72.01 19.02-.62 89.8 18.83-8.07 7.86 18-32.7 13.86-13.65-9.1.62-104.49h19.66m26.79-34.93-7.3 3.74-17.38 8.9-7.13 3.65 3.58 7.16 1.7 3.41h-27.96l-.05 8.03-.01 1.95-2 .2-8.73.85-2.09-28.57-.6-8.16-8.15.69-19.45 1.66-7.99.68.62 8 2.28 29.31-14.22 1.33-8.07.75.78 8.07 1.86 19.24.78 8.03 8.03-.76 13.52-1.29 1.41 18.74-22.55 8.07-7.55 2.7 2.64 7.57 6.41 18.42 2.66 7.65 7.64-2.68 13.67-4.8.69 8.84-21.77 14.75-6.74 4.57 4.62 6.71 10.97 15.93 4.51 6.56 6.63-4.42 30.42-20.28 1.89-1.26.96-2.06 4.14-8.9.89-1.92-.16-2.11-2.22-28.85 3.79-1.37-.12 20.65-.03 4.36 3.62 2.42 13.65 9.1 3.63 2.42 4.01-1.7 6.45-2.73-7.62 9.47-5.1 6.34 6.37 5.06 15.11 12 6.28 4.99 5.04-6.24 23.47-29.09 22.21 24.3 5.41 5.92 5.96-5.37 14.48-13.04 6.01-5.41-5.42-6.01-25.8-28.61 6.85-8.5.89-1.1.46-1.34 2.07-6 .44-1.28V585.49h-35.4V613.93l-14.26-28.9-3.63-7.37zm-19.24 112.44.48-70.07 5.85 11.7 3.58 7.16 7.19-3.51 17.38-8.48 2.65-1.29v53.47l-15.76 19.59-3.3-7.56-3.21-7.36-7.38 3.16-7.48 3.19zm-43.19-38.98 7.68-.75-.05 7.85-3.31 1.2-3.62 1.32-.7-9.62z" fill="#adb7bf"/></g><g><path d="m1477.04 761.89-13.21-10.24v-40.57l4.06-5.04-11.76-19.78 11.59-6.93h-5.18l.29-27.33h51.16l7-3.92h-46.91l-12.32-12.07v-40.5l11.76-13.04h56.94l12.68 11.39-1.13 42.43-.05.05 10.83-6.07.84 1.48v-36.24l11.76-13.04h55.98l12.69 12.17-3.16 42.19-12.27 11.25h-11.76l3.91 7.23h22.37l-.29 27.95h-8.6l-5.13 10.75h2.22l12.09 13.42-3.38 42.14-12.62 10.04h-58.72l-11.5-13.33v-23.56l-2.18 26.44-11.2 12.72h-56.8zm41.53-27.53.78-9.51h-27.78v9.51h27zm85.03-2.69.81-10.13h-29.45v10.13h28.64zm-68.22-34.76 11.84 10.2v-.95l12.09-12.15h34.26l-26.27-12.82h-46.22l-27.96 15.71h42.26zm43.14-42.84-1.2-2.03 7.14-3.96h-18.74l-6.57-6.57 7.11 12.55h12.26zm25.86-33.72.69-10.13h-23.71v10.13h23.02zm-89.72 0 .35-10.13h-25.51v10.13h25.16z"/><path d="m1619.75 586.52 10.14 9.73-2.9 38.69-9.93 9.1h-49.66l-9.73-9.73v-37.25l9.52-10.55h52.56m-10.35 19.67h-32.07v18.21h30.83l1.24-18.21m-80.49-19.66 10.14 9.1-1.03 38.9-9.93 9.52h-52.35l-9.93-9.73v-37.25l9.52-10.55h53.58m-9.73 19.67h-33.73v18.21h33.11l.62-18.21m32.08 29.59 9.73 17.17-8.28 5.17h32.9l-2.69-4.55 17.17-9.52 8.28 15.31h20.69l-.21 19.87h-12.21l4.14 1.92-8.07 16.91h6.83l9.73 10.79-3.1 38.66-10.14 8.07h-55.45l-9.31-10.79v-36.96l9.73-9.77h50.07l-42.83-20.9h-48.21l-42.34 23.8h-.49l-.4.5-5.18 2.91-9.93-16.7 20.69-12.37h-15.73l.21-19.24h48.21l36.19-20.28m57.52 81.73h-37.87v18.21h36.42l1.45-18.21m-74.9-16.55 10.35 8.91-3.1 37.64-9.11 10.35h-53.59l-10.55-8.18v-37.16l8.91-11.06.89-.5h56.2m-10.14 19.86h-36.21v17.59h34.76l1.45-17.59M1623 578.44H1563.6l-2.41 2.67-9.52 10.55-2.08 2.31v33.47l-2.28 1.28-1.07.6.89-33.48.1-3.73-2.78-2.49-10.14-9.1-2.3-2.07h-60.28l-2.41 2.67-9.52 10.55-2.08 2.31v43.76l2.43 2.38 8.04 7.87h-9.35l-.09 7.99-.21 19.24-.05 4.94-.98.59-6.92 4.14 4.12 6.93 8.27 13.9-1.41 1.75-1.79 2.22v43.97l3.13 2.43 10.55 8.18 2.19 1.69H1535.66l2.41-2.74 9.11-10.35.18-.2 7.09 8.21 2.42 2.8H1618.84l2.21-1.76 10.14-8.07 2.74-2.18.28-3.49 3.1-38.66.28-3.47-2.33-2.59-9.73-10.79-.85-.94 2.1-4.4h10.05l.08-8 .21-19.87.09-8.17h-16.1l1.39-1.27 9.93-9.1 2.36-2.16.24-3.19 2.9-38.69.28-3.8-2.75-2.64-10.14-9.72-2.32-2.28zm-37.59 35.82h15.34l-.14 2.05h-15.2v-2.05zm-91.87 0h17.28l-.07 2.05h-17.21v-2.05zm28.59 70.97h44.23l9.7 4.74h-18.44l-2.37 2.38-8.76 8.8-7.34-6.33-2.27-1.96h-28.33l13.58-7.63zm56.87 40.35h21.03l-.16 2.05H1579v-2.05zm-83.39 3.31h19.36l-.12 1.42h-19.24v-1.42z" fill="#adb7bf"/></g></g><g id="en-wiki"><g><linearGradient id="o" gradientUnits="userSpaceOnUse" x1="732.478" y1="572.736" x2="732.478" y2="688.154"><stop offset="0" stop-color="#fff"/><stop offset=".053" stop-color="#f3f4f5"/><stop offset=".238" stop-color="#d0d4d7"/><stop offset=".425" stop-color="#b5bbc0"/><stop offset=".613" stop-color="#a1a8af"/><stop offset=".804" stop-color="#969ea5"/><stop offset="1" stop-color="#929aa1"/></linearGradient><path d="m736.8 688.15-2.96-42.06c-.09-2.71-.22-5.42-.36-8.11-.07.68-.15 1.36-.23 2.04l-4.88 48.13h-23.84l-10.54-115.42h21.9l3.13 36.89 3.78-36.89h22.64l3.21 40.96 3.66-40.96h18.66l-11.51 115.42H736.8z" fill="url(#o)"/><path d="M768.03 575.39 757.05 685.5h-17.78l-2.78-39.59c-.46-14.23-2.01-28.3-2.01-42.53h-.77c-1.39 12.06-1.7 24.28-3.09 36.34l-4.64 45.78h-19.02L696.9 575.39h16.55l3.4 40.05c.93 12.84 1.7 25.83 2.01 38.97h.77c0-14.38 1.08-28.61 1.86-42.84l3.71-36.19h17.78l3.4 43.46c1.08 13.45 1.24 23.66 1.7 35.57h.77c.46-10.83.62-22.73 1.7-32.32l4.18-46.7h13.3m5.87-5.31h-24.03l-.43 4.84-.63 7-.54-6.94-.38-4.9h-27.48l-.49 4.77-.65 6.33-.53-6.24-.41-4.86h-27.25l.53 5.79 10.05 110.11.44 4.83H730.77l.48-4.78 1.61-15.9 1.11 15.74.35 4.94h27.54l.48-4.78 10.98-110.11.58-5.84z"/></g><g><linearGradient id="p" gradientUnits="userSpaceOnUse" x1="784.114" y1="572.736" x2="784.114" y2="688.154"><stop offset="0" stop-color="#fff"/><stop offset=".053" stop-color="#f3f4f5"/><stop offset=".238" stop-color="#d0d4d7"/><stop offset=".425" stop-color="#b5bbc0"/><stop offset=".613" stop-color="#a1a8af"/><stop offset=".804" stop-color="#969ea5"/><stop offset="1" stop-color="#929aa1"/></linearGradient><path fill="url(#p)" d="M773.26 572.74h21.7v115.42h-21.7z"/><path d="M792.31 575.39V685.5h-16.39V575.39h16.39m5.31-5.31H770.61v120.73H797.62V570.08z"/></g><g><linearGradient id="q" gradientUnits="userSpaceOnUse" x1="826.568" y1="572.736" x2="826.568" y2="688.154"><stop offset="0" stop-color="#fff"/><stop offset=".053" stop-color="#f3f4f5"/><stop offset=".238" stop-color="#d0d4d7"/><stop offset=".425" stop-color="#b5bbc0"/><stop offset=".613" stop-color="#a1a8af"/><stop offset=".804" stop-color="#969ea5"/><stop offset="1" stop-color="#929aa1"/></linearGradient><path fill="url(#q)" d="m830.06 688.15-7.57-35.47v35.47h-21.7V572.74h21.7v32.75l8.27-32.75h21.39l-13.2 52.96 13.4 62.45z"/><path d="m848.75 575.39-12.53 50.26 12.84 59.85H832.2l-11.91-55.83h-.46v55.83h-16.39V575.39h16.39v49.64h.46l12.53-49.64h15.93m6.8-5.31h-26.87l-1.01 4.01-2.53 10.02v-14.04H798.13V690.81H825.14v-12.95l1.87 8.75.9 4.2h27.73l-1.38-6.42-12.58-58.64 12.23-49.07 1.64-6.6z"/></g><g><linearGradient id="r" gradientUnits="userSpaceOnUse" x1="864.526" y1="572.736" x2="864.526" y2="688.154"><stop offset="0" stop-color="#fff"/><stop offset=".053" stop-color="#f3f4f5"/><stop offset=".238" stop-color="#d0d4d7"/><stop offset=".425" stop-color="#b5bbc0"/><stop offset=".613" stop-color="#a1a8af"/><stop offset=".804" stop-color="#969ea5"/><stop offset="1" stop-color="#929aa1"/></linearGradient><path fill="url(#r)" d="M853.67 572.74h21.7v115.42h-21.7z"/><path d="M872.72 575.39V685.5h-16.39V575.39h16.39m5.31-5.31H851.02v120.73H878.03V570.08z"/></g><g><linearGradient id="s" gradientUnits="userSpaceOnUse" x1="929.705" y1="572.736" x2="929.705" y2="688.154"><stop offset="0" stop-color="#fff"/><stop offset=".053" stop-color="#f3f4f5"/><stop offset=".238" stop-color="#d0d4d7"/><stop offset=".425" stop-color="#b5bbc0"/><stop offset=".613" stop-color="#a1a8af"/><stop offset=".804" stop-color="#969ea5"/><stop offset="1" stop-color="#929aa1"/></linearGradient><path fill="url(#s)" d="M908.41 688.15V572.74h21.71v95.72h20.87v19.69z"/><path d="M927.46 575.39v95.73h20.88v14.38h-37.27V575.39h16.39m5.31-5.31H905.76v120.73H953.65v-25h-20.88v-95.73z"/></g><g><linearGradient id="t" gradientUnits="userSpaceOnUse" x1="963.648" y1="572.736" x2="963.648" y2="688.154"><stop offset="0" stop-color="#fff"/><stop offset=".053" stop-color="#f3f4f5"/><stop offset=".238" stop-color="#d0d4d7"/><stop offset=".425" stop-color="#b5bbc0"/><stop offset=".613" stop-color="#a1a8af"/><stop offset=".804" stop-color="#969ea5"/><stop offset="1" stop-color="#929aa1"/></linearGradient><path fill="url(#t)" d="M952.8 572.74h21.7v115.42h-21.7z"/><path d="M971.84 575.39V685.5h-16.39V575.39h16.39m5.32-5.31H950.15v120.73H977.16V570.08z"/></g><g><linearGradient id="u" gradientUnits="userSpaceOnUse" x1="1001.381" y1="572.736" x2="1001.381" y2="688.154"><stop offset="0" stop-color="#fff"/><stop offset=".053" stop-color="#f3f4f5"/><stop offset=".238" stop-color="#d0d4d7"/><stop offset=".425" stop-color="#b5bbc0"/><stop offset=".613" stop-color="#a1a8af"/><stop offset=".804" stop-color="#969ea5"/><stop offset="1" stop-color="#929aa1"/></linearGradient><path fill="url(#u)" d="M980.32 688.15V572.74h42.12v19.69h-20.41v22.99h19.64v19.69h-19.64v53.04z"/><path d="M1019.78 575.39v14.38h-20.41v28.3h19.64v14.38h-19.64v53.04h-16.39v-110.1h36.8m5.31-5.31H977.66v120.73H1004.67v-53.04h19.64v-25h-19.64v-17.68h20.41v-25.01h.01z"/></g><g><linearGradient id="v" gradientUnits="userSpaceOnUse" x1="1045.918" y1="572.736" x2="1045.918" y2="688.154"><stop offset="0" stop-color="#fff"/><stop offset=".053" stop-color="#f3f4f5"/><stop offset=".238" stop-color="#d0d4d7"/><stop offset=".425" stop-color="#b5bbc0"/><stop offset=".613" stop-color="#a1a8af"/><stop offset=".804" stop-color="#969ea5"/><stop offset="1" stop-color="#929aa1"/></linearGradient><path fill="url(#v)" d="M1024.86 688.15V572.74h41.81v19.69h-20.11v22.99h19.33v19.69h-19.33v33.35h20.42v19.69z"/><path d="M1064.01 575.39v14.38h-20.1v28.3h19.33v14.38h-19.33v38.66h20.41v14.38h-36.81v-110.1h36.5m5.31-5.31H1022.2v120.73H1069.63v-25h-20.41v-28.04h19.33v-25h-19.33v-17.68H1069.32v-25.01z"/></g></g><g id="zh-wiki"><g><linearGradient id="w" gradientUnits="userSpaceOnUse" x1="553.137" y1="339.989" x2="553.137" y2="574.283"><stop offset="0" stop-color="#fff"/><stop offset=".053" stop-color="#f3f4f5"/><stop offset=".238" stop-color="#d0d4d7"/><stop offset=".425" stop-color="#b5bbc0"/><stop offset=".613" stop-color="#a1a8af"/><stop offset=".804" stop-color="#969ea5"/><stop offset="1" stop-color="#929aa1"/></linearGradient><path d="m442.29 543.34 58.47-28.64h-45.25l-13.08-24.66 28.74-42.75-23.2-2.21-11.94-23.21 41.7-77.08 31.07 15.9-15.06 27.72 65.71-48.42 12.11 16.65-.22-.47 31.76-14.77 16.39 35.51 47.42-4.34 3.32 34.73-49.73 4.74 1.09 14.03h45.29l1.85 34.79h-44.49l.75 9.07h40.74l.74 34.79h-38.84l2.14 28.06 39.11 2.95-2.97 34.34-106.86-7.58.25 11.57h-34.83l-.45-31.92-66.18 32.15-15.55-30.95zm152.6-13.17-1.8-23.09h-34.84l.36 20.33 36.28 2.76zm-71.12-6.95-1.58-112.2-9.79 7.16-20.2-26.93-11.96 22.02 26.3 2.9 11.67 24.18-26.77 39.57h23.38v27.9l1.23-.6 7.72 16zm66.44-51.19-.56-7.5H557.7l.11 7.5h32.4zm-3.4-42.29-1.08-14.94-28.57 2.54.15 12.4h29.5zm-25.53-47.61 21.25-1.89-4.72-10.15-16.53 12.04z" fill="url(#w)"/><path d="m558.36 347.07 14.71 20.22-21.28 15.5v5.25l38.35-3.41-12.08-26 22.59-10.51 15.76 34.14 45.96-4.2 2.36 24.69-49.64 4.73 1.84 23.64h45.18l1.31 24.69h-44.65l1.58 19.17h40.45l.52 24.69h-39.13l2.89 37.82 38.35 2.89-2.1 24.3-107.42-7.62.26 11.95h-24.69l-2.36-167.83-13.66 9.98-14.97-19.96 59.87-44.13m-6.04 87.72h39.92l-1.84-25.48-38.35 3.41.27 22.07m.52 42.29h42.81l-1.31-17.6h-41.76l.26 17.6m47.54 58.57-2.63-33.62H553.1l.53 30.07 46.75 3.55M479.83 351.54l22.06 11.29-29.68 54.63 30.99 3.41 9.19 19.04-30.47 45.04h27.84v24.69h-51.22l-10.24-19.3 31.78-47.28-28.89-2.76-9.45-18.39 38.09-70.37m33.88 162.44 10.77 22.33-64.35 31.25-11.03-21.93 64.61-31.65m46.84-181.07-8.18 6.03-43.36 31.95 1.76-3.23 4.94-9.1-9.22-4.72-22.06-11.29-8.79-4.5-4.7 8.68-38.08 70.39-2.54 4.69 2.44 4.74 9.45 18.39 2.53 4.91 5.5.52 12 1.15-22.32 33.2-3.38 5.02 2.84 5.35 10.24 19.3 2.85 5.37h26.5l-34.32 16.81-9.17 4.49 4.59 9.12 11.03 21.93 4.48 8.9 8.96-4.35 54.56-26.5.27 18.99.14 9.96H564.49l-.23-10.32-.02-.86 96.37 6.83 9.92.7.86-9.91 2.1-24.3.88-10.18-10.19-.77-29.69-2.24-1.4-18.3h38.55l-.22-10.32-.52-24.69-.19-8.86h3.37l-.57-10.64-1.31-24.69-.51-9.57h-45.41l-.34-4.42 39.76-3.79 10.06-.96-.96-10.06-2.36-24.69-.96-10.01-10.03.94-38.86 3.55-12.77-27.67-4.25-9.2-9.19 4.27-22.59 10.51-.9.42-6.37-8.76-5.97-8.21zm-72.28 76.16 4.61-8.49 7.36 9.81-11.97-1.32zm74 12.9 18.8-1.67.32 4.4H562.3l-.03-2.73zm-47.11.44 2.12-1.55.09 6.11-2.21-4.56zm-14.2 52.45 16.73-24.74.35 24.74h-17.08zm62.43 37.27h25.03l.98 12.55-25.82-1.96-.19-10.59z"/></g><g><linearGradient id="x" gradientUnits="userSpaceOnUse" x1="794.72" y1="343.241" x2="794.72" y2="573.924"><stop offset="0" stop-color="#fff"/><stop offset=".053" stop-color="#f3f4f5"/><stop offset=".238" stop-color="#d0d4d7"/><stop offset=".425" stop-color="#b5bbc0"/><stop offset=".613" stop-color="#a1a8af"/><stop offset=".804" stop-color="#969ea5"/><stop offset="1" stop-color="#929aa1"/></linearGradient><path d="m702.65 539.43 61.93-5.09.27-1.25h-21.81l-.71-33.8-23.63 28.52-26.66-22.22 9.29-11.25-20.2 1.57-2.95-35.03 27.63-2.1-1.76-32.97h19.04l2.62-33.23h-35.68l.74-35.05h37.91l1.35-14.27 34.67 2.58-1.02 13.53h64.26l-.26-13.26h35.07l.26 14.84h30.14l-.74 34.79h-28.98l.65 50.79 44.59-3.63 2.6 34.37-41.99 3.42 30.06 28.24-14.69 15.59.8-.07 3.33 34.75-183.52 14.74-2.61-34.51zm134.74-11.05 29.09-2.39-29.74-28.4.65 30.79zm-65.16-30.35 1.97-9.67-24.47 1.98-6.37 7.68h28.87zm63.33-1.57-8.6-8.22 4.4-4.51-42.55 3.45 20.35 4.42-1.05 4.85h27.45zm-6.92-75.38.24 3.84-.5-30.51H812.9l1.4 26.67h14.34z" fill="url(#x)"/><path d="m734.6 348.65 24.69 1.84-1.05 13.92h74.85l-.26-13.26h24.95l.26 14.84h29.94l-.52 24.69H858.3l.79 61.31 44.91-3.66 1.84 24.3-48.33 3.94 34.67 32.57-17.07 18.12-40.97-39.13 10.24-10.51-97.18 7.88-29.15 35.19-18.91-15.76 13.66-16.55-27.05 2.1-2.1-24.95 41.5-3.15.52-6.83H710.7l-1.31-24.69h18.39l3.41-43.34H695.2l.53-24.95h37.56l1.31-13.92m20.74 46.22h52.53l1.31 24.95H753.5l-.79 6.3h71.18l1.58 24.95h-74.85l-.52 9.19 84.31-6.51-1.05-64.41h-77.22l-.8 5.53m23.64 95.34 24.16 5.25-1.31 6.04h29.94l.53 24.95h-35.72l-2.1 10.51 86.41-7.09 2.36 24.69-173.35 13.92-1.84-24.43 60.67-4.99 2.36-11.03h-23.11l-.53-24.95h28.89l2.64-12.87m-53.51-152.37-.93 9.86-.45 4.77h-38.25l-.21 9.89-.53 24.95-.22 10.31H720.25l-1.82 23.13H698.73l.57 10.64 1.21 22.72-17.63 1.34-10.16.77.85 10.15 2.1 24.95.84 10 10.01-.78 3.34-.26-4.92 5.96 7.72 6.44 18.91 15.76 5.67 4.72-10.01.82-10 .82.75 10 1.84 24.43.76 10.12 10.12-.81 173.35-13.92 10.22-.82-.98-10.21-2.36-24.69-.33-3.4 8.92-9.46 6.94-7.36-7.37-6.93-18.08-16.99 25.64-2.09 10.01-.82-.76-10.01-1.84-24.3-.77-10.13-10.13.83-34.13 2.78-.52-40.26H897.32l.21-9.89.52-24.69.22-10.32h-30.34l-.09-4.92-.18-9.92h-45.17l.2 10.3.06 2.96h-53.66l.23-3.06.76-10.08-10.08-.75-24.69-1.84-9.84-.71zm92.76 61.62h5.18l.27 16.57h-4.58l-.87-16.57zm-3.59 90.69 6.46-.52 1.86 1.78h-8.59l.27-1.26zm27.69 32.75-.28-13.26 12.81 12.24-12.53 1.02zm-121.24 9.95 4.74-5.73 11.74-14.17.32 15.3.07 3.21-16.87 1.39z"/></g><g><linearGradient id="y" gradientUnits="userSpaceOnUse" x1="1035.803" y1="349.359" x2="1035.803" y2="567.194"><stop offset="0" stop-color="#fff"/><stop offset=".053" stop-color="#f3f4f5"/><stop offset=".238" stop-color="#d0d4d7"/><stop offset=".425" stop-color="#b5bbc0"/><stop offset=".613" stop-color="#a1a8af"/><stop offset=".804" stop-color="#969ea5"/><stop offset="1" stop-color="#929aa1"/></linearGradient><path fill="url(#y)" d="M927.96 530.2h91.43l3.61-42.55h-61.91l.74-35.06h64.44l2.98-31.65h-61.32l-14.97 33.02-31.28-15.03 43.26-89.39 31.6 15.06-10.9 20.76h46.9l3.19-36 34.79 2.96-2.59 27.26h72.78l1.85 34.79h-77.89l-3.37 41.11h72.01l-1.47 35.06h-73.8l-3.24 34.02h93.24l1.89 32.44-220.88 10.19z"/><path d="m1040.32 354.82 24.69 2.1-2.63 27.71h73.54l1.31 24.69h-77.22l-4.2 51.22h72.23l-1.05 24.95h-73.54l-4.2 44.12h94.03l1.31 22.59-210.65 9.72-.79-26.66h90.88l4.46-52.66h-62.25l.52-24.95h64.09l3.94-41.76h-70.13l-14.18 31.29-22.06-10.6 38.87-80.31 22.32 10.64-12.35 23.51h59.89l3.17-35.6m-77.74-12-4.37 9.04-38.87 80.31-4.41 9.12 9.13 4.39 22.06 10.6 9.31 4.47 1.24-2.73-.51 24.36-.22 10.31h61.57l-2.75 32.45h-92l.31 10.4.79 26.66.3 10.27 10.26-.47 210.65-9.72 10.21-.47-.59-10.21-1.31-22.59-.55-9.52h-92.45l2.28-23.92h74.05l.41-9.68 1.05-24.95.44-10.53h-71.8l2.54-31.01h78.56l-.57-10.64-1.31-24.69-.51-9.57h-72.02l1.58-16.65.96-10.15-10.16-.86-24.69-2.1-10.03-.85-.89 10.03-2.34 26.38H994l4.57-8.71 4.88-9.3-9.48-4.52-22.32-10.64-9.07-4.31zm8.61 83.17h52.52l-2.03 21.56h-60.25l9.76-21.56z"/></g><g><linearGradient id="z" gradientUnits="userSpaceOnUse" x1="1277.312" y1="344.258" x2="1277.312" y2="575.064"><stop offset="0" stop-color="#fff"/><stop offset=".053" stop-color="#f3f4f5"/><stop offset=".238" stop-color="#d0d4d7"/><stop offset=".425" stop-color="#b5bbc0"/><stop offset=".613" stop-color="#a1a8af"/><stop offset=".804" stop-color="#969ea5"/><stop offset="1" stop-color="#929aa1"/></linearGradient><path d="m1166.62 564.71 32.74-104.02-33.29-14.78 14.02-32.28 49.54 22.35 7.22 16.9 4.97-90.17 14.4-17.29h125.14l1.48 34.79h-107.38l-3 57.14h33.35v-9.33h-28.37V393.5h28.37v-11.03h34.79v11.03h29.68v34.53h-29.68v6.44h42.35l1.45 36.37h-38.55v15.9h23.59l2.22 34.79h-25.81v2.97l42.77-4.67 3.69 34.73-126.75 13.8-.08 1.61h-35.08l6.14-111.4-36.63 116.48-33.29-10.34zm100.79-31.68 43.63-4.8v-3.82h-29.89l-2.22-34.79h32.11v-18.79h-40.36l-3.27 62.2zm-105.09-159.22 18.84-29.55 58.98 38.4-19.25 28.87-58.57-37.72z" fill="url(#z)"/><path d="m1376.51 350.48 1.05 24.69h-106.9l-9.98 189.76h-24.95l11.03-200.27 11.82-14.18h117.93m-193.84.79 50.43 32.83-13.66 20.49-50.16-32.31 13.39-21.01m152.86 36.25v11.03h29.68v24.43h-29.68v16.55h42.55l1.05 26.26h-106.11l-1.05-23.38h38.87v-19.44h-28.37v-24.43h28.37v-11.03h24.69m-152.86 32.84 43.07 19.44 6.57 15.36-35.72 113.59-23.64-7.35 32.57-103.48-32.83-14.58 9.98-22.98m158.12 54.45v16.99h23.9l1.58 24.69h-25.48v13.66l43.34-4.73 2.63 24.69-118.19 12.87-2.63-24.69 50.17-5.52v-13.4h-30.2l-1.58-24.69h31.78V474.8h24.68m-161.15-137.56-5.48 8.6-13.39 21.01-5.41 8.48 8.45 5.44 50.16 32.31 8.36 5.38 5.52-8.27 6.85-10.28-1.76 32.03-3.03-1.37-43.07-19.44-9.34-4.21-4.08 9.4-9.98 22.98-3.99 9.19 9.16 4.07 24.59 10.92-29.86 94.88-3.04 9.67 9.68 3.01 23.64 7.35 9.62 2.99 3.02-9.61 23.04-73.27-3.63 65.87-.59 10.66H1270.28l.11-2.1 117.47-12.79 10.02-1.09-1.07-10.02-2.63-24.69-1.07-10.07-10.07 1.1-6.67.73-.02-.26-1.58-24.69-.6-9.46h-23.28v-5.8h38.75l-.42-10.51-1.05-26.26-.39-9.7h-12.48v-40.97h-29.68V385.28h42.46l-.45-10.53-1.05-24.69-.41-9.67h-132.34l-3.03 3.64-11.8 14.17-2.14 2.57-.18 3.34-.55 9.91-47.94-31.21-8.55-5.57zm100.6 48.04h20.5V388.45h-20.66l.16-3.17zm-4.76 90.61H1306v8.69h-30.98l.46-8.69zm-2.71 51.47 1.59-30.15 1.46 22.8.44 6.97-3.49.38z"/></g></g></svg>